<svg id="adpine-logo" xmlns="http://www.w3.org/2000/svg" viewBox="0 0 553.76 404.51"><defs><style>.cls-1{fill:#ef7b1b;}.cls-2{fill:#eb601a;}.cls-3{fill:#da461d;}.cls-4{fill:#1d1d1b;}</style></defs><title>adpine-logo_tall</title><polygon class="cls-1" points="553.76 189.53 0 189.52 107.03 260.11 553.76 189.53"/><polygon class="cls-2" points="544.99 190.86 107.17 260 102.18 404.51 166.83 290.09 553.76 189.53 544.99 190.86"/><polygon class="cls-3" points="102.18 404.51 255.78 339.92 166.88 289.77 102.18 404.51"/><polygon class="cls-1" points="553.76 189.53 166.88 289.77 330.04 382.04 553.76 189.53"/><path class="cls-4" d="M78.81,96.59,74,82.95H37.75l-5,13.64H0L40.78,0H73.58l39.27,96.59ZM46,60.07H66.14L56.22,31.83Z"/><path class="cls-4" d="M189.18,5.92A43.22,43.22,0,0,1,207.51,22.8q6.48,11,6.48,25.42t-6.61,25.49A44.25,44.25,0,0,1,188.56,90.6q-12.19,6-28.32,6H118.36V0h43.13Q177.33,0,189.18,5.92Zm-13,59.52q5.17-6.34,5.17-16.95t-5.58-17.22q-5.58-6.48-14.95-6.48H150.32v47h12A17,17,0,0,0,176.16,65.45Z"/><path class="cls-4" d="M297.48,9q10.33,9,10.33,25.56,0,17.5-10.33,27.21t-29.21,9.71H254.9V96.59h-32V0h45.33Q287.14,0,297.48,9Zm-22.8,35.14q2.82-3.1,2.82-8.61t-2.82-8.34q-2.83-3-8.06-3H254.9v23h11.71Q271.85,47.26,274.68,44.16Z"/><path class="cls-4" d="M317.46,0h32V96.59h-32Z"/><path class="cls-4" d="M428.1,0H457V96.59H430.3l-38-49.33V96.59H363.2V0h26.73L428.1,49.6Z"/><path class="cls-4" d="M470.81,0h81.71V24.25H502.78V36.1H548V60.35H502.78v12h51V96.59H470.81Z"/><path class="cls-4" d="M19.05,130.65a8.79,8.79,0,0,1,2.88,7A9.32,9.32,0,0,1,19,145q-2.9,2.6-8.15,2.6h-7v8.79H0V128.15H10.89Q16.17,128.15,19.05,130.65Zm-2.76,11.84a5.73,5.73,0,0,0,1.94-4.7,5.52,5.52,0,0,0-1.94-4.58,8.72,8.72,0,0,0-5.57-1.55l-6.86,0v12.38h6.86A8.55,8.55,0,0,0,16.29,142.48Z"/><path class="cls-4" d="M55.37,156.38l-5.61-8.87q-1,.08-1.57.08H41v8.79H37.14V128.15h11q5.36,0,8.29,2.48a8.72,8.72,0,0,1,2.92,7,10,10,0,0,1-1.59,5.77,8.91,8.91,0,0,1-4.58,3.39l6.57,9.56Zm-7.18-12.3a8.55,8.55,0,0,0,5.57-1.59,5.73,5.73,0,0,0,1.94-4.7,5.52,5.52,0,0,0-1.94-4.58,8.72,8.72,0,0,0-5.57-1.55H41v12.42Z"/><path class="cls-4" d="M96.2,129.8a14.25,14.25,0,0,1,5.38,5.18,13.78,13.78,0,0,1,2,7.24,14,14,0,0,1-2,7.28,14.3,14.3,0,0,1-5.38,5.24,15.56,15.56,0,0,1-15,0,14.28,14.28,0,0,1-5.38-5.24,14,14,0,0,1-2-7.28,13.78,13.78,0,0,1,2-7.24,14.28,14.28,0,0,1,5.36-5.18,15.75,15.75,0,0,1,15,0Zm-12.9,3a11,11,0,0,0-4,3.93,10.4,10.4,0,0,0-1.49,5.46,10.51,10.51,0,0,0,1.49,5.48,11.13,11.13,0,0,0,4,4,10.64,10.64,0,0,0,5.46,1.47,10.43,10.43,0,0,0,5.42-1.47,11.08,11.08,0,0,0,4-4,10.62,10.62,0,0,0,1.47-5.48,10.51,10.51,0,0,0-1.47-5.46,11,11,0,0,0-4-3.93,10.55,10.55,0,0,0-5.42-1.45A10.76,10.76,0,0,0,83.29,132.83Z"/><path class="cls-4" d="M138.14,130a13.51,13.51,0,0,1,5.22,5.06,14.63,14.63,0,0,1,0,14.44,13.61,13.61,0,0,1-5.26,5.06,15.34,15.34,0,0,1-7.5,1.84H119.2V128.15H130.7A15.14,15.14,0,0,1,138.14,130Zm-2,21.51a10.07,10.07,0,0,0,3.79-3.79,11.2,11.2,0,0,0,0-10.85A10.28,10.28,0,0,0,136,133a10.76,10.76,0,0,0-5.42-1.39h-7.54v21.21h7.7A10.58,10.58,0,0,0,136.12,151.5Z"/><path class="cls-4" d="M166.28,151a8,8,0,0,0,5.95,2.2,7.83,7.83,0,0,0,5.89-2.2,8.4,8.4,0,0,0,2.14-6.11V128.15h3.87v16.69q0,5.53-3.17,8.67t-8.73,3.15q-5.61,0-8.79-3.15t-3.18-8.67V128.15h3.87v16.69A8.35,8.35,0,0,0,166.28,151Z"/><path class="cls-4" d="M225.34,156.38h-4.68l-9.92-13-5.2,5.65v7.38h-3.87V128.15h3.87V144L220,128.15h4.64l-11.17,12.18Z"/><path class="cls-4" d="M236.63,128.15h22.06v3.55h-9.11v24.68h-3.87V131.7h-9.07Z"/><path class="cls-4" d="M273.21,128.15h3.87v28.23h-3.87Z"/><path class="cls-4" d="M315,129.8a14.25,14.25,0,0,1,5.38,5.18,13.78,13.78,0,0,1,2,7.24,14,14,0,0,1-2,7.28,14.3,14.3,0,0,1-5.38,5.24,15.56,15.56,0,0,1-15,0,14.28,14.28,0,0,1-5.38-5.24,14,14,0,0,1-2-7.28,13.78,13.78,0,0,1,2-7.24,14.28,14.28,0,0,1,5.36-5.18,15.75,15.75,0,0,1,15,0Zm-12.9,3a11,11,0,0,0-4,3.93,10.4,10.4,0,0,0-1.49,5.46,10.51,10.51,0,0,0,1.49,5.48,11.13,11.13,0,0,0,4,4,10.64,10.64,0,0,0,5.46,1.47,10.43,10.43,0,0,0,5.42-1.47,11.08,11.08,0,0,0,4-4,10.62,10.62,0,0,0,1.47-5.48,10.51,10.51,0,0,0-1.47-5.46,11,11,0,0,0-4-3.93,10.55,10.55,0,0,0-5.42-1.45A10.76,10.76,0,0,0,302.14,132.83Z"/><path class="cls-4" d="M358.14,128.15H362v28.23h-3.91l-16.13-21.86v21.86h-3.87V128.15H342L358.14,150Z"/><path class="cls-4" d="M392.55,132.16a13.8,13.8,0,0,0-3.89-.63,7.19,7.19,0,0,0-3.93.95,3,3,0,0,0-1.47,2.6,3.42,3.42,0,0,0,.89,2.44,6.28,6.28,0,0,0,2.18,1.49q1.29.54,3.59,1.27a40.62,40.62,0,0,1,4.64,1.69,8.05,8.05,0,0,1,3,2.4,6.64,6.64,0,0,1,1.25,4.21,7,7,0,0,1-1.31,4.23,8.4,8.4,0,0,1-3.67,2.8,13.93,13.93,0,0,1-5.42,1,15.77,15.77,0,0,1-6-1.21,16.38,16.38,0,0,1-5.08-3.23l1.73-3.35a14.53,14.53,0,0,0,4.54,3,12.5,12.5,0,0,0,4.9,1.07,7.83,7.83,0,0,0,4.46-1.11,3.46,3.46,0,0,0,1.63-3,3.5,3.5,0,0,0-.89-2.46,6.27,6.27,0,0,0-2.24-1.53,38.11,38.11,0,0,0-3.65-1.25,37.23,37.23,0,0,1-4.6-1.65,7.94,7.94,0,0,1-3-2.38,6.55,6.55,0,0,1-1.23-4.15,6.65,6.65,0,0,1,1.25-4,7.9,7.9,0,0,1,3.51-2.66,13.74,13.74,0,0,1,5.24-.93,17,17,0,0,1,5,.75,16.74,16.74,0,0,1,4.33,2L396.65,134A16.26,16.26,0,0,0,392.55,132.16Z"/><path class="cls-4" d="M433.93,130a6.13,6.13,0,0,1,2.48,5.18A6.25,6.25,0,0,1,435,139.3a6.66,6.66,0,0,1-3.75,2.24,7.35,7.35,0,0,1,4.62,2.36,7,7,0,0,1,1.67,4.78,6.68,6.68,0,0,1-2.72,5.67,12.31,12.31,0,0,1-7.52,2H415.08V128.15h12.06A11,11,0,0,1,433.93,130ZM431,139a3.77,3.77,0,0,0,1.43-3.17,3.67,3.67,0,0,0-1.43-3.11,6.42,6.42,0,0,0-4.05-1h-8v8.43h8A6.49,6.49,0,0,0,431,139Zm.87,12.62a4,4,0,0,0,1.78-3.45,3.84,3.84,0,0,0-1.78-3.35,8.65,8.65,0,0,0-4.92-1.21h-8v9.19h8A8.34,8.34,0,0,0,431.85,151.64Z"/><path class="cls-4" d="M475.12,128.15,464.56,146.7v9.68h-3.87v-9.52L450,128.15h4l8.71,14.4,8.55-14.4Z"/><path class="cls-4" d="M507.58,156.38,502,147.51q-1,.08-1.57.08h-7.18v8.79h-3.87V128.15h11q5.36,0,8.29,2.48a8.72,8.72,0,0,1,2.92,7,10,10,0,0,1-1.59,5.77,8.91,8.91,0,0,1-4.58,3.39l6.57,9.56Zm-7.18-12.3a8.55,8.55,0,0,0,5.57-1.59,5.73,5.73,0,0,0,1.94-4.7,5.52,5.52,0,0,0-1.94-4.58,8.72,8.72,0,0,0-5.57-1.55h-7.18v12.42Z"/><path class="cls-4" d="M549.56,156.38l-3-6.86H531.7l-2.94,6.86h-4.07l12.54-28.23h4l12.5,28.23ZM533.23,146h11.86l-6-13.71Zm9-27.16a4.19,4.19,0,1,1-3-1.27A4.11,4.11,0,0,1,542.2,118.85Zm-4.6,1.47a2.06,2.06,0,0,0-.67,1.53,2,2,0,0,0,.67,1.51,2.24,2.24,0,0,0,1.59.63,2.32,2.32,0,0,0,1.61-.63,2,2,0,0,0,.69-1.51,2,2,0,0,0-.69-1.53,2.28,2.28,0,0,0-1.61-.65A2.2,2.2,0,0,0,537.61,120.33Z"/></svg>