<svg id="adpine-logo" xmlns="http://www.w3.org/2000/svg" viewBox="0 0 941.83 181.92"><defs><style>.cls-1{fill:#1d1d1b;}.cls-2{fill:#ef7b1b;}.cls-3{fill:#eb601a;}.cls-4{fill:#da461d;}</style></defs><title>adpine-logo_wide</title><path class="cls-1" d="M466.88,98.82l-4.82-13.64H425.82l-5,13.64H388.07L428.85,2.23h32.79l39.27,96.59ZM434.09,62.3h20.12l-9.92-28.25Z"/><path class="cls-1" d="M577.25,8.15A43.22,43.22,0,0,1,595.58,25q6.48,11,6.48,25.42t-6.61,25.49a44.25,44.25,0,0,1-18.81,16.88q-12.19,6-28.32,6H506.43V2.23h43.13Q565.4,2.23,577.25,8.15Zm-13,59.52q5.17-6.34,5.17-16.95t-5.58-17.22Q558.24,27,548.87,27H538.39V74h12A17,17,0,0,0,564.23,67.68Z"/><path class="cls-1" d="M685.55,11.25q10.33,9,10.33,25.56,0,17.5-10.33,27.21t-29.21,9.71H643V98.82H611V2.23h45.33Q675.21,2.23,685.55,11.25Zm-22.8,35.14q2.82-3.1,2.82-8.61t-2.82-8.34q-2.83-3-8.06-3H643v23h11.71Q659.92,49.49,662.75,46.39Z"/><path class="cls-1" d="M705.53,2.23h32V98.82h-32Z"/><path class="cls-1" d="M816.17,2.23H845.1V98.82H818.37l-38-49.33V98.82H751.27V2.23H778l38.17,49.6Z"/><path class="cls-1" d="M858.88,2.23h81.71V26.48H890.85V38.33H936V62.58H890.85v12h51V98.82H858.88Z"/><path class="cls-1" d="M407.12,132.88a8.79,8.79,0,0,1,2.88,7,9.32,9.32,0,0,1-2.9,7.32q-2.9,2.6-8.15,2.6h-7v8.79h-3.87V130.38H399Q404.24,130.38,407.12,132.88Zm-2.76,11.84a5.73,5.73,0,0,0,1.94-4.7,5.52,5.52,0,0,0-1.94-4.58,8.72,8.72,0,0,0-5.57-1.55l-6.86,0V146.3h6.86A8.55,8.55,0,0,0,404.36,144.71Z"/><path class="cls-1" d="M443.44,158.6l-5.61-8.87q-1,.08-1.57.08h-7.18v8.79h-3.87V130.38h11q5.36,0,8.29,2.48a8.72,8.72,0,0,1,2.92,7,10,10,0,0,1-1.59,5.77A8.91,8.91,0,0,1,441.3,149l6.57,9.56Zm-7.18-12.3a8.55,8.55,0,0,0,5.57-1.59,5.73,5.73,0,0,0,1.94-4.7,5.52,5.52,0,0,0-1.94-4.58,8.72,8.72,0,0,0-5.57-1.55h-7.18V146.3Z"/><path class="cls-1" d="M484.27,132a14.25,14.25,0,0,1,5.38,5.18,13.78,13.78,0,0,1,2,7.24,14,14,0,0,1-2,7.28,14.3,14.3,0,0,1-5.38,5.24,15.56,15.56,0,0,1-15,0,14.28,14.28,0,0,1-5.38-5.24,14,14,0,0,1-2-7.28,13.78,13.78,0,0,1,2-7.24,14.28,14.28,0,0,1,5.36-5.18,15.75,15.75,0,0,1,15,0Zm-12.9,3a11,11,0,0,0-4,3.93,10.4,10.4,0,0,0-1.49,5.46,10.51,10.51,0,0,0,1.49,5.48,11.13,11.13,0,0,0,4,4,10.64,10.64,0,0,0,5.46,1.47,10.43,10.43,0,0,0,5.42-1.47,11.08,11.08,0,0,0,4-4,10.62,10.62,0,0,0,1.47-5.48A10.51,10.51,0,0,0,486.2,139a11,11,0,0,0-4-3.93,10.55,10.55,0,0,0-5.42-1.45A10.76,10.76,0,0,0,471.36,135.05Z"/><path class="cls-1" d="M526.21,132.21a13.51,13.51,0,0,1,5.22,5.06,14.63,14.63,0,0,1,0,14.44,13.61,13.61,0,0,1-5.26,5.06,15.34,15.34,0,0,1-7.5,1.84H507.27V130.38h11.49A15.14,15.14,0,0,1,526.21,132.21Zm-2,21.51a10.07,10.07,0,0,0,3.79-3.79,11.2,11.2,0,0,0,0-10.85,10.28,10.28,0,0,0-3.85-3.81,10.76,10.76,0,0,0-5.42-1.39h-7.54V155.1h7.7A10.58,10.58,0,0,0,524.19,153.72Z"/><path class="cls-1" d="M554.36,153.18a8,8,0,0,0,5.95,2.2,7.83,7.83,0,0,0,5.89-2.2,8.4,8.4,0,0,0,2.14-6.11V130.38h3.87v16.69q0,5.53-3.17,8.67t-8.73,3.15q-5.61,0-8.79-3.15t-3.18-8.67V130.38h3.87v16.69A8.35,8.35,0,0,0,554.36,153.18Z"/><path class="cls-1" d="M613.41,158.6h-4.68l-9.92-13-5.2,5.65v7.38h-3.87V130.38h3.87v15.85L608,130.38h4.64l-11.17,12.18Z"/><path class="cls-1" d="M624.7,130.38h22.06v3.55h-9.11V158.6h-3.87V133.92H624.7Z"/><path class="cls-1" d="M661.28,130.38h3.87V158.6h-3.87Z"/><path class="cls-1" d="M703.12,132a14.25,14.25,0,0,1,5.38,5.18,13.78,13.78,0,0,1,2,7.24,14,14,0,0,1-2,7.28,14.3,14.3,0,0,1-5.38,5.24,15.56,15.56,0,0,1-15,0,14.28,14.28,0,0,1-5.38-5.24,14,14,0,0,1-2-7.28,13.78,13.78,0,0,1,2-7.24,14.28,14.28,0,0,1,5.36-5.18,15.75,15.75,0,0,1,15,0Zm-12.9,3a11,11,0,0,0-4,3.93,10.4,10.4,0,0,0-1.49,5.46,10.51,10.51,0,0,0,1.49,5.48,11.13,11.13,0,0,0,4,4,10.64,10.64,0,0,0,5.46,1.47,10.43,10.43,0,0,0,5.42-1.47,11.08,11.08,0,0,0,4-4,10.62,10.62,0,0,0,1.47-5.48,10.51,10.51,0,0,0-1.47-5.46,11,11,0,0,0-4-3.93,10.55,10.55,0,0,0-5.42-1.45A10.76,10.76,0,0,0,690.21,135.05Z"/><path class="cls-1" d="M746.21,130.38H750V158.6h-3.91L730,136.75V158.6h-3.87V130.38H730l16.17,21.9Z"/><path class="cls-1" d="M780.62,134.39a13.8,13.8,0,0,0-3.89-.63,7.19,7.19,0,0,0-3.93.95,3,3,0,0,0-1.47,2.6,3.42,3.42,0,0,0,.89,2.44,6.28,6.28,0,0,0,2.18,1.49q1.29.54,3.59,1.27a40.62,40.62,0,0,1,4.64,1.69,8.05,8.05,0,0,1,3,2.4,6.64,6.64,0,0,1,1.25,4.21,7,7,0,0,1-1.31,4.23,8.4,8.4,0,0,1-3.67,2.8,13.93,13.93,0,0,1-5.42,1,15.77,15.77,0,0,1-6-1.21,16.38,16.38,0,0,1-5.08-3.23l1.73-3.35a14.53,14.53,0,0,0,4.54,3,12.5,12.5,0,0,0,4.9,1.07,7.83,7.83,0,0,0,4.46-1.11,3.46,3.46,0,0,0,1.63-3,3.5,3.5,0,0,0-.89-2.46,6.27,6.27,0,0,0-2.24-1.53,38.11,38.11,0,0,0-3.65-1.25,37.23,37.23,0,0,1-4.6-1.65,7.94,7.94,0,0,1-3-2.38,6.55,6.55,0,0,1-1.23-4.15,6.65,6.65,0,0,1,1.25-4,7.9,7.9,0,0,1,3.51-2.66,13.74,13.74,0,0,1,5.24-.93,17,17,0,0,1,5,.75,16.74,16.74,0,0,1,4.33,2l-1.61,3.47A16.26,16.26,0,0,0,780.62,134.39Z"/><path class="cls-1" d="M822,132.25a6.13,6.13,0,0,1,2.48,5.18,6.25,6.25,0,0,1-1.37,4.09,6.66,6.66,0,0,1-3.75,2.24,7.35,7.35,0,0,1,4.62,2.36,7,7,0,0,1,1.67,4.78,6.68,6.68,0,0,1-2.72,5.67,12.31,12.31,0,0,1-7.52,2H803.15V130.38H815.2A11,11,0,0,1,822,132.25Zm-2.94,9a3.77,3.77,0,0,0,1.43-3.17,3.67,3.67,0,0,0-1.43-3.11,6.42,6.42,0,0,0-4.05-1h-8v8.43h8A6.49,6.49,0,0,0,819.06,141.24Zm.87,12.62a4,4,0,0,0,1.78-3.45,3.84,3.84,0,0,0-1.78-3.35,8.65,8.65,0,0,0-4.92-1.21h-8v9.19h8A8.34,8.34,0,0,0,819.92,153.87Z"/><path class="cls-1" d="M863.19,130.38l-10.57,18.55v9.68h-3.87v-9.52L838,130.38h4l8.71,14.4,8.55-14.4Z"/><path class="cls-1" d="M895.65,158.6,890,149.73q-1,.08-1.57.08H881.3v8.79h-3.87V130.38h11q5.36,0,8.29,2.48a8.72,8.72,0,0,1,2.92,7,10,10,0,0,1-1.59,5.77,8.91,8.91,0,0,1-4.58,3.39l6.57,9.56Zm-7.18-12.3a8.55,8.55,0,0,0,5.57-1.59A5.73,5.73,0,0,0,896,140a5.52,5.52,0,0,0-1.94-4.58,8.72,8.72,0,0,0-5.57-1.55H881.3V146.3Z"/><path class="cls-1" d="M937.63,158.6l-3-6.86H919.77l-2.94,6.86h-4.07l12.54-28.23h4l12.5,28.23ZM921.3,148.24h11.86l-6-13.71Zm9-27.16a4.19,4.19,0,1,1-3-1.27A4.11,4.11,0,0,1,930.27,121.08Zm-4.6,1.47a2.06,2.06,0,0,0-.67,1.53,2,2,0,0,0,.67,1.51,2.24,2.24,0,0,0,1.59.63,2.32,2.32,0,0,0,1.61-.63,2,2,0,0,0,.69-1.51,2,2,0,0,0-.69-1.53,2.28,2.28,0,0,0-1.61-.65A2.2,2.2,0,0,0,925.68,122.55Z"/><polygon class="cls-2" points="403.11 2.36 0 2.35 77.91 53.74 403.11 2.36"/><polygon class="cls-3" points="396.72 3.33 78.01 53.66 74.38 158.86 121.44 75.56 403.11 2.36 396.72 3.33"/><polygon class="cls-4" points="74.38 158.86 186.19 111.84 121.48 75.33 74.38 158.86"/><polygon class="cls-2" points="403.11 2.36 121.48 75.33 240.25 142.5 403.11 2.36"/></svg>